<svg width="95" height="95" viewBox="0 0 95 95" fill="none" xmlns="http://www.w3.org/2000/svg">
<g clip-path="url(#clip0)">
<path d="M87.7228 60.102H86.0044C85.2796 56.791 82.3306 54.444 78.9415 54.4796H78.9082V38H80.4592C81.3188 37.9932 82.0117 37.2934 82.0102 36.4338C82.0102 21.4841 69.8482 9.30612 54.8984 9.30612H40.1024C25.1518 9.30612 12.9898 21.4583 12.9898 36.4081C12.9898 36.8261 13.1526 37.2268 13.4442 37.5259C13.7327 37.822 14.1273 37.9924 14.5408 38H16.0918V54.4796V54.4508C12.6846 54.4114 9.71963 56.7728 8.99562 60.102H7.27722C3.27244 60.1126 0.0242347 63.3487 0 67.3543V72.8018C0.0227201 76.8104 3.26941 80.0533 7.27722 80.0714H7.7339C8.02471 81.4142 8.70253 82.6426 9.68403 83.6044C11.0404 84.957 12.8823 85.7098 14.7976 85.6939H21.5356C22.3497 85.6984 23.0275 85.0698 23.0835 84.2572L24.9769 56.0927C25.0057 55.6701 24.855 55.2559 24.5619 54.9499C24.2665 54.6424 23.856 54.472 23.4289 54.4796H19.1939V38H20.2216C21.0857 37.9788 21.7749 37.2714 21.7726 36.4066C21.784 26.3098 30.0071 18.0306 40.1016 18.0306H54.8961C64.9929 18.0306 73.216 26.309 73.2274 36.4066C73.2251 37.2714 73.9143 37.9788 74.7784 38H75.8061V54.4796H71.5704C71.1432 54.4713 70.7327 54.6424 70.4381 54.9522C70.1435 55.2619 69.9928 55.6807 70.0231 56.1071L71.9165 84.2618C71.9725 85.0729 72.6503 85.7007 73.4637 85.6939H80.2024C82.1177 85.7098 83.9596 84.957 85.316 83.6044C86.2975 82.6426 86.9753 81.4142 87.2653 80.0714H87.7228C91.7306 80.0533 94.9765 76.8111 95 72.8025V67.355C94.9758 63.3495 91.7276 60.1126 87.7228 60.102V60.102ZM3.10204 72.8025V67.355C3.124 65.0618 4.98477 63.2124 7.27722 63.2041H8.69117L7.66346 76.9694H7.27722C4.98174 76.9527 3.12325 75.0988 3.10204 72.8025ZM20.086 82.5918H14.7976C13.7032 82.5964 12.6528 82.1647 11.878 81.393C11.1025 80.6205 10.6671 79.5716 10.6678 78.4772C10.6678 78.4053 10.6701 78.3364 10.6739 78.2644L11.9326 61.4721C11.9326 61.4622 11.9341 61.4721 11.9348 61.4615C12.0598 59.2773 13.8713 57.5733 16.0578 57.5816H21.7703L20.086 82.5918ZM54.8976 14.9286H40.1001C28.8181 14.9286 19.5362 23.8469 18.7274 34.898H16.1411C16.9423 22.2528 27.4322 12.4074 40.1024 12.4082H54.8984C67.5686 12.4074 78.0584 22.2528 78.8589 34.898H76.2711C75.463 23.8469 66.1819 14.9286 54.8976 14.9286V14.9286ZM83.122 81.3922C82.3487 82.167 81.2968 82.5987 80.2024 82.5918H74.914L73.2297 57.5816H78.9422C81.1294 57.5741 82.941 59.2788 83.0652 61.463C83.0652 61.4728 83.0659 61.4736 83.0667 61.4834L84.3261 78.272C84.3299 78.344 84.3314 78.4076 84.3314 78.4795C84.3345 79.5731 83.899 80.6228 83.122 81.3922V81.3922ZM91.898 72.8025C91.8768 75.0988 90.0183 76.9527 87.7228 76.9694H87.3365L86.3088 63.2041H87.7228C90.0152 63.2124 91.8752 65.0618 91.898 67.3543V72.8025Z" fill="url(#paint0_linear)"/>
</g>
<defs>
<linearGradient id="paint0_linear" x1="47.5" y1="-1.41337" x2="47.5" y2="95.7447" gradientUnits="userSpaceOnUse">
<stop stop-color="#00EFD1"/>
<stop offset="1" stop-color="#00ACEA"/>
</linearGradient>
<clipPath id="clip0">
<rect width="95" height="95" fill="white"/>
</clipPath>
</defs>
</svg>
