<svg viewBox="0 0 363 267" fill="none" xmlns="http://www.w3.org/2000/svg">
<path d="M362.5 253.333V13.3333C362.494 9.79838 360.517 6.40938 357.002 3.90979C353.487 1.4102 348.721 0.00411691 343.75 0H18.75C13.779 0.00411691 9.0132 1.4102 5.49814 3.90979C1.98309 6.40938 0.00578941 9.79838 0 13.3333V253.333C0.00578941 256.868 1.98309 260.257 5.49814 262.757C9.0132 265.256 13.779 266.663 18.75 266.667H81.25C85.8655 266.669 90.3185 265.455 93.75 263.26C97.1815 265.455 101.635 266.669 106.25 266.667H168.75C173.365 266.669 177.819 265.455 181.25 263.26C184.681 265.455 189.135 266.669 193.75 266.667H256.25C260.865 266.669 265.319 265.455 268.75 263.26C272.181 265.455 276.635 266.669 281.25 266.667H343.75C348.721 266.663 353.487 265.256 357.002 262.757C360.517 260.257 362.494 256.868 362.5 253.333ZM275 8.88889C276.657 8.89021 278.246 9.35889 279.417 10.1921C280.589 11.0253 281.248 12.155 281.25 13.3333V164.444C281.248 165.623 280.589 166.752 279.417 167.586C278.246 168.419 276.657 168.888 275 168.889H262.5C260.843 168.888 259.254 168.419 258.083 167.586C256.911 166.752 256.252 165.623 256.25 164.444V13.3333C256.252 12.155 256.911 11.0253 258.083 10.1921C259.254 9.35889 260.843 8.89021 262.5 8.88889H275ZM187.5 8.88889C189.157 8.89021 190.746 9.35889 191.917 10.1921C193.089 11.0253 193.748 12.155 193.75 13.3333V164.444C193.748 165.623 193.089 166.752 191.917 167.586C190.746 168.419 189.157 168.888 187.5 168.889H175C173.343 168.888 171.754 168.419 170.583 167.586C169.411 166.752 168.752 165.623 168.75 164.444V13.3333C168.752 12.155 169.411 11.0253 170.583 10.1921C171.754 9.35889 173.343 8.89021 175 8.88889H187.5ZM100 8.88889C101.657 8.89021 103.246 9.35889 104.417 10.1921C105.589 11.0253 106.248 12.155 106.25 13.3333V164.444C106.248 165.623 105.589 166.752 104.417 167.586C103.246 168.419 101.657 168.888 100 168.889H87.5C85.843 168.888 84.2543 168.419 83.0826 167.586C81.9109 166.752 81.2519 165.623 81.25 164.444V13.3333C81.2519 12.155 81.9109 11.0253 83.0826 10.1921C84.2543 9.35889 85.843 8.89021 87.5 8.88889H100ZM81.25 257.778H18.75C17.093 257.776 15.5043 257.308 14.3326 256.475C13.1609 255.641 12.5019 254.512 12.5 253.333V13.3333C12.5019 12.155 13.1609 11.0253 14.3326 10.1921C15.5043 9.35889 17.093 8.89021 18.75 8.88889H69.825C69.1127 10.3159 68.7492 11.8191 68.75 13.3333V164.444C68.7556 167.979 70.7328 171.368 74.2479 173.868C77.763 176.368 82.5289 177.774 87.5 177.778V253.333C87.4981 254.512 86.8391 255.641 85.6674 256.475C84.4957 257.308 82.907 257.776 81.25 257.778ZM168.75 257.778H106.25C104.593 257.776 103.004 257.308 101.833 256.475C100.661 255.641 100.002 254.512 100 253.333V177.778C104.971 177.774 109.737 176.368 113.252 173.868C116.767 171.368 118.744 167.979 118.75 164.444V13.3333C118.751 11.8191 118.387 10.3159 117.675 8.88889H157.325C156.613 10.3159 156.249 11.8191 156.25 13.3333V164.444C156.256 167.979 158.233 171.368 161.748 173.868C165.263 176.368 170.029 177.774 175 177.778V253.333C174.998 254.512 174.339 255.641 173.167 256.475C171.996 257.308 170.407 257.776 168.75 257.778ZM256.25 257.778H193.75C192.093 257.776 190.504 257.308 189.333 256.475C188.161 255.641 187.502 254.512 187.5 253.333V177.778C192.471 177.774 197.237 176.368 200.752 173.868C204.267 171.368 206.244 167.979 206.25 164.444V13.3333C206.251 11.8191 205.887 10.3159 205.175 8.88889H244.825C244.113 10.3159 243.749 11.8191 243.75 13.3333V164.444C243.756 167.979 245.733 171.368 249.248 173.868C252.763 176.368 257.529 177.774 262.5 177.778V253.333C262.498 254.512 261.839 255.641 260.667 256.475C259.496 257.308 257.907 257.776 256.25 257.778ZM350 253.333C349.998 254.512 349.339 255.641 348.167 256.475C346.996 257.308 345.407 257.776 343.75 257.778H281.25C279.593 257.776 278.004 257.308 276.833 256.475C275.661 255.641 275.002 254.512 275 253.333V177.778C279.971 177.774 284.737 176.368 288.252 173.868C291.767 171.368 293.744 167.979 293.75 164.444V13.3333C293.751 11.8191 293.387 10.3159 292.675 8.88889H343.75C345.407 8.89021 346.996 9.35889 348.167 10.1921C349.339 11.0253 349.998 12.155 350 13.3333V253.333Z" fill="url(#paint0_linear)"/>
<defs>
<linearGradient id="paint0_linear" x1="181.25" y1="266.667" x2="181.25" y2="0" gradientUnits="userSpaceOnUse">
<stop stop-color="#12C2E9"/>
<stop offset="0.5" stop-color="#C471ED"/>
<stop offset="1" stop-color="#F64F59"/>
</linearGradient>
</defs>
</svg>
